inDegrees=no
num_controls=7
num_derivatives=13
num_iterations=132
num_multipliers=7
num_parameters=0
num_slacks=7
num_states=26
objective=5.028000
objective_accelerations=0.356930
objective_balance=0.033385
objective_effort=0.172739
objective_height=4.420428
objective_ligament=0.044518
solver_duration=1464.511984
status=Solve_Succeeded
success=true
DataType=double
version=3
OpenSimVersion=4.4-2022-07-23-0e9fedc
endheader
time	/jointset/ground_pelvis/pelvis_tilt/value	/jointset/ground_pelvis/pelvis_tx/value	/jointset/ground_pelvis/pelvis_ty/value	/jointset/hip_l/hip_flexion_l/value	/jointset/hip_l/hip_adduction_l/value	/jointset/hip_l/hip_rotation_l/value	/jointset/back/lumbar_extension/value	/jointset/patellofemoral_l/patellar_flexion_l/value	/jointset/knee_l/knee_flexion_l/value	/jointset/knee_l/knee_adduction_l/value	/jointset/knee_l/knee_rotation_l/value	/jointset/ankle_l/ankle_angle_l/value	/jointset/subtalar_l/subtalar_angle_l/value	/jointset/ground_pelvis/pelvis_tilt/speed	/jointset/ground_pelvis/pelvis_tx/speed	/jointset/ground_pelvis/pelvis_ty/speed	/jointset/hip_l/hip_flexion_l/speed	/jointset/hip_l/hip_adduction_l/speed	/jointset/hip_l/hip_rotation_l/speed	/jointset/back/lumbar_extension/speed	/jointset/patellofemoral_l/patellar_flexion_l/speed	/jointset/knee_l/knee_flexion_l/speed	/jointset/knee_l/knee_adduction_l/speed	/jointset/knee_l/knee_rotation_l/speed	/jointset/ankle_l/ankle_angle_l/speed	/jointset/subtalar_l/subtalar_angle_l/speed	/forceset/tau_hip_flexion_l	/forceset/tau_hip_adduction_l	/forceset/tau_hip_rotation_l	/forceset/tau_knee_flexion_l	/forceset/tau_ankle_angle_l	/forceset/tau_subtalar_angle_l	/forceset/tau_lumbar_extension	lambda_cid13_p0	lambda_cid13_p1	lambda_cid13_p2	lambda_cid13_p3	lambda_cid13_p4	lambda_cid13_p5	lambda_cid14_p0	/jointset/ground_pelvis/pelvis_tilt/accel	/jointset/ground_pelvis/pelvis_tx/accel	/jointset/ground_pelvis/pelvis_ty/accel	/jointset/hip_l/hip_flexion_l/accel	/jointset/hip_l/hip_adduction_l/accel	/jointset/hip_l/hip_rotation_l/accel	/jointset/back/lumbar_extension/accel	/jointset/patellofemoral_l/patellar_flexion_l/accel	/jointset/knee_l/knee_flexion_l/accel	/jointset/knee_l/knee_adduction_l/accel	/jointset/knee_l/knee_rotation_l/accel	/jointset/ankle_l/ankle_angle_l/accel	/jointset/subtalar_l/subtalar_angle_l/accel	gamma_cid13_p0	gamma_cid13_p1	gamma_cid13_p2	gamma_cid13_p3	gamma_cid13_p4	gamma_cid13_p5	gamma_cid14_p0
0	-0.04519852575923004	0.07142553696589557	0.8961826196958561	0.1955292361009247	-0.3195046033117105	-0.5321165176039017	-0.137903700187828	0.07015350928390542	0.07015350928391206	-0.1745329251994329	-0.1641616969025274	-0.06701017130107029	0.00705567188321895	0	0	0	0	0	0	0	0	0	0	0	0	0	0.09412113076640614	-0.1268108724926894	-0.04298425900842272	-0.2719026119971201	0.2811764358450921	-0.01691348472824776	-0.03194442210615966	54.61517984125441	-6.412887880969572	5.478961874141717	-43.46864436266532	-524.0442525462344	-84.95853266800535	-41.24831061547007	-1.294657566752042	-0.04590077091103187	-0.5401293892775637	5.690190780941658	-2.127356579379645	2.984205494820005	-2.151439596521868	8.404300831216064	8.404300831215199	0.2175813925679599	-0.1971124185491149	3.935977783478884	-0.178121998282317	-5.131953693830535e-08	6.9985279612873e-08	1.169924802118271e-07	2.229100357642362e-08	-1.997010241087939e-08	-6.276616836655839e-08	-1.438114743694021e-08
0.01	-0.0452578098730816	0.07142333467860462	0.8961565082500785	0.1958018067251489	-0.3196091129616196	-0.531966369082861	-0.138014468740867	0.0705622477980905	0.07056224779815794	-0.1745241227821107	-0.1641664560821743	-0.06681838316736997	0.007046020394521714	-0.01178487980745956	-0.0004543545347721603	-0.005204815021075227	0.05428605768684807	-0.02079496717500244	0.02990303083284637	-0.02198119120252957	0.08139090988595489	0.08139090988595259	0.001775132795130368	-0.0009485571973234016	0.03817501170228492	-0.001914079144957427	0.09011821598581818	-0.1299447604464425	-0.04189435314153394	-0.2648278369040914	0.2675711912423193	-0.008856858257363555	-0.02880840058648119	50.50952636726643	-9.087001291189409	5.784199575644979	-41.18725063980283	-524.784608296035	-90.94371075380958	-41.25591079130083	-1.109622307933317	-0.04728289747299454	-0.508040432414261	5.263592051801231	-2.039546173645052	2.974336586685009	-2.195580971553921	7.952969999918722	7.952969999919047	0.1595961208952131	-0.0432220602746409	3.730866534864341	-0.1956420106191511	-8.576024905197987e-08	9.511531894883805e-08	1.643687559772453e-07	4.919186624792906e-08	-1.408173492109838e-07	-9.788098158429029e-08	-1.982248852846164e-08
0.02	-0.04543278660904038	0.07141617282542427	0.8960788720793117	0.1966103936840926	-0.319918368160693	-0.5315209933116449	-0.1383398736238158	0.07177419219771954	0.07177419219772255	-0.1744971420783169	-0.164180599771686	-0.06625032418239442	0.007017709886771321	-0.02313852442253057	-0.0009919131778858491	-0.01030494499784599	0.1072032669435111	-0.04094910983337773	0.05904545003242136	-0.04292726598249969	0.1606411770772473	0.1606411770772482	0.00363494150662863	-0.001876901992674828	0.07525417025501176	-0.003731803810588324	0.08611530120512377	-0.1330786484002411	-0.0408044472752026	-0.2577530618110976	0.2539659466394739	-0.00080023178656188	-0.02567237906679967	46.45651487835509	-11.77185857817732	6.092895970445462	-39.13207328643989	-524.8150868363387	-96.78335313905224	-41.27833860627736	-1.208410528274538	-0.06254159257913187	-0.5191923804166849	5.416421094904507	-1.999191676054378	2.832083168165723	-1.944416312010046	7.976172292283546	7.976172292283781	0.2345165758411629	-0.1930699381546882	3.716807153567447	-0.1588511024170885	-1.202009611656544e-07	1.202453582848031e-07	2.117450317426635e-07	7.60927289194345e-08	-2.616645960110883e-07	-1.329957948020222e-07	-2.526382961998306e-08
0.03	-0.04571930012638142	0.07140322465331372	0.8959506118326712	0.1979417627448757	-0.3204258810341404	-0.5307881227463843	-0.1388693022542249	0.07376828068171981	0.07376828068167687	-0.174451048308726	-0.164204222235721	-0.06531679396003945	0.006971862304280617	-0.0340822346760044	-0.001610137351840218	-0.015339786956751	0.1588382371538706	-0.0604353766916933	0.08740528029362914	-0.06278639043259672	0.2378160929126246	0.2378160929126135	0.005597258206581782	-0.002843840599480259	0.1112702313100423	-0.005410397834648128	0.08175963169469877	-0.1253364698511107	-0.03973200296156992	-0.2506644612325795	0.2451397936922976	-0.002364663996287688	-0.02227862480784358	43.54723323691532	-10.76526477944171	6.140570905236066	-36.83654244409129	-525.1467908078952	-94.17340160852839	-41.31474664855505	-1.02507384622491	-0.06330991819420528	-0.4945853188039049	5.002169884748553	-1.905669163928198	2.819399231472085	-1.980850061666448	7.534092283705404	7.534092283703759	0.179153481496394	-0.04791826325787085	3.516749147476353	-0.1683081370025165	-1.461127436434442e-07	1.405200572474098e-07	2.474610737566037e-07	9.710246762707794e-08	-3.580806068438727e-07	-1.598920869749208e-07	-2.878012368057283e-08
0.04	-0.04611279526072166	0.07138372482178638	0.895772212123406	0.1997825084878842	-0.3211247215708118	-0.5297753606232241	-0.1395921600391685	0.07652330653488912	0.07652330653489078	-0.1743849185193156	-0.1642373965742089	-0.06402855441393322	0.00691003986462861	-0.04453484782310003	-0.0023022450612447	-0.02033283752281258	0.2090786033901373	-0.07921464247833122	0.1150237616097791	-0.08161309688899346	0.3128286509296196	0.312828650929602	0.007642145483484801	-0.003787276858849141	0.1461960350052929	-0.006926775242794282	0.07740396218406205	-0.1175942913019815	-0.03865955864723253	-0.2435758606543358	0.2363136407450346	-0.003929096206069951	-0.0188848705489846	40.68746852241179	-9.765455561470699	6.187175176428733	-34.75300035329388	-524.8179624230308	-91.42257885345543	-41.36408387874124	-1.11019110699906	-0.07731829966896976	-0.510834101848003	5.137500300085841	-1.857791461718914	2.683813379154174	-1.737932713270054	7.543700728607079	7.543700728608417	0.2510306912309778	-0.1883694686673401	3.498755681611672	-0.1264077792343281	-1.718486719019375e-07	1.606946460992256e-07	2.829366985797918e-07	1.179907398612397e-07	-4.539928808525888e-07	-1.86618925105658e-07	-3.225672604980319e-08
